<svg width="142" height="141" viewBox="0 0 142 141" fill="none" xmlns="http://www.w3.org/2000/svg">
<g clip-path="url(#clip0)">
<path d="M83.4987 72.3837C84.3976 73.4486 84.1994 75.0343 83.0458 76.008L74.4576 83.2573C73.304 84.2311 71.7076 84.1602 70.8087 83.0954L61.1208 71.6182C60.222 70.5533 60.4201 68.9676 61.5737 67.9939L70.1619 60.7446C71.3155 59.7708 72.9119 59.8417 73.8108 60.9066L83.4987 72.3837Z" fill="#3A2819"/>
<path d="M137.6 68.8631C138.898 70.4013 139.115 73.2581 137.448 74.6646L63.8721 136.77C62.2057 138.177 59.4258 137.484 58.1274 135.946L34.0575 107.43C32.7591 105.892 33.2419 103.864 34.9083 102.457L108.484 40.3514C110.151 38.9448 112.232 38.8094 113.53 40.3476L137.6 68.8631V68.8631Z" fill="#A09D93"/>
<path d="M134.504 65.1951C135.802 66.7333 135.12 68.5252 133.453 69.9318L59.8771 132.038C58.2107 133.444 56.3296 133.816 55.0312 132.278L30.9613 103.763C29.6629 102.224 30.2456 100.314 31.912 98.9076L105.488 36.8018C107.155 35.3952 109.135 35.1415 110.434 36.6797L134.504 65.1951V65.1951Z" fill="#D8D6CA"/>
<path d="M31.5275 99.2321L105.488 36.8018C107.155 35.3952 109.136 35.1415 110.434 36.6796L134.504 65.1951C135.802 66.7333 135.12 68.5252 133.453 69.9318" fill="#C1BDAE"/>
<path d="M86.6114 78.6719C86.7113 78.7902 86.683 79.0167 86.5548 79.1249L76.813 87.348C76.6848 87.4562 76.4568 87.446 76.3569 87.3277L74.7589 85.4346C74.659 85.3163 74.6873 85.0897 74.8155 84.9815L84.5573 76.7585C84.6855 76.6503 84.9135 76.6604 85.0134 76.7787L86.6114 78.6719Z" fill="#F9A12C"/>
<path d="M75.8409 84.116L84.8137 76.5421L86.6114 78.6719C86.7113 78.7902 86.683 79.0167 86.5548 79.1249" fill="#E88813"/>
<path d="M91.6051 84.5879C91.705 84.7063 91.6767 84.9328 91.5485 85.041L81.8067 93.264C81.6785 93.3722 81.4505 93.3621 81.3506 93.2438L79.7526 91.3507C79.6527 91.2323 79.681 91.0058 79.8092 90.8976L89.551 82.6746C89.6792 82.5664 89.9073 82.5765 90.0071 82.6948L91.6051 84.5879Z" fill="#F9A12C"/>
<path d="M80.8347 90.032L89.8074 82.4582L91.6052 84.588C91.7051 84.7063 91.6767 84.9328 91.5486 85.041" fill="#E88813"/>
<path d="M80.518 102.66C81.4169 103.724 81.6466 105.557 80.4929 106.531L59.7275 124.059C58.5739 125.033 57.0624 124.282 56.1635 123.217L40.0836 104.167C39.1847 103.103 38.5988 101.368 39.7525 100.394L60.3897 82.9745C61.5433 82.0008 63.3112 82.5348 64.3099 83.718L80.3899 102.768L80.518 102.66Z" fill="#3A2819"/>
<path d="M125.581 65.0269C126.48 66.0917 126.254 67.9039 125.1 68.8777L103.822 86.8386C102.668 87.8124 100.844 87.7314 99.945 86.6665L83.3657 67.0251C82.4668 65.9602 82.6933 64.1481 83.8469 63.1743L105.125 45.2134C106.279 44.2396 108.103 44.3206 109.002 45.3855L125.581 65.0269Z" fill="#3A2819"/>
<path d="M64.3046 93.8538L61.741 96.0178L59.1442 92.9414C58.4451 92.1132 56.8487 92.0423 56.0796 92.6915L50.3114 97.5604C49.4141 98.3178 49.4724 99.687 50.1715 100.515L52.7683 103.592L49.9483 105.972C49.051 106.729 49.0227 106.956 49.7218 107.784L54.2162 113.109C54.9153 113.937 56.0423 115.012 56.9395 114.255L59.7595 111.874L61.4574 113.886C62.1565 114.714 63.3967 114.883 64.294 114.125L70.0621 109.256C70.9594 108.499 71.0294 107.022 70.4301 106.312L68.7322 104.3L71.2959 102.136C72.1931 101.379 71.5789 99.8711 70.8798 99.0429L66.3854 93.7184C65.6863 92.8902 65.2019 93.0964 64.3046 93.8538Z" fill="#EA1F0A"/>
<path d="M59.7595 111.874L61.4574 113.886C62.1565 114.714 63.3967 114.883 64.294 114.125L70.0621 109.256C70.9594 108.499 71.0294 107.022 70.4301 106.312L68.7322 104.3L71.2959 102.136C72.1931 101.379 71.5789 99.8711 70.8798 99.0428L66.3854 93.7184C65.6863 92.8901 65.2019 93.0964 64.3046 93.8538L61.741 96.0177" fill="#BC0400"/>
<path d="M102.147 61.7088C104.244 64.1936 103.663 67.9261 101.099 70.09C98.4074 72.3622 94.6586 72.0819 92.6611 69.7155C90.5637 67.2307 91.1448 63.4982 93.7084 61.3343C96.272 59.1703 100.149 59.3424 102.147 61.7088Z" fill="#329908"/>
<path d="M98.1397 59.8226C101.561 59.9745 103.858 62.6959 103.433 66.0937C103.008 69.4915 100.06 71.98 96.6395 71.8282" fill="#236D00"/>
<path d="M117.411 61.5891C119.509 64.0739 118.928 67.8064 116.364 69.9704C113.672 72.2425 109.923 71.9622 107.926 69.5958C105.829 67.1111 106.41 63.3785 108.973 61.2146C111.437 58.9323 115.314 59.1044 117.411 61.5891Z" fill="#07BED6"/>
<path d="M113.305 59.5847C116.726 59.7365 119.023 62.4579 118.598 65.8557C118.173 69.2535 115.225 71.742 111.804 71.5902" fill="#00A1AD"/>
<path d="M106.973 39.601C107.372 40.0743 107.587 41.1088 107.074 41.5416L36.3182 101.267C35.8055 101.7 34.8217 101.314 34.4222 100.841C34.0227 100.368 33.808 99.3334 34.3207 98.9006L105.077 39.1752C105.59 38.7424 106.573 39.1277 106.973 39.601Z" fill="#D8D6CA"/>
<path d="M64.9881 60.8566L61.1427 64.1026L54.2513 55.9384C52.4536 53.8086 49.5171 53.4505 47.338 55.2898C45.159 57.1292 44.5912 59.8373 46.5887 62.2038L42.7433 65.4497C39.747 61.9001 39.7556 55.4088 44.1137 51.7301C48.4719 48.0513 54.4729 48.6594 57.8687 52.6823L64.86 60.9648L64.9881 60.8566V60.8566Z" fill="#4C5254"/>
<path d="M43.1679 62.0519C42.1424 62.9175 41.9443 64.5031 42.7433 65.4497C44.541 67.5795 44.2729 70.6426 41.9657 72.5901C39.6584 74.5377 36.722 74.1796 34.9242 72.0498L18.9442 53.1184L15.0987 56.3643L31.0788 75.2957C34.4745 79.3187 40.6038 79.8185 45.0901 76.0316C49.5765 72.2447 50.1127 66.1185 46.7169 62.0956C45.9179 61.149 44.1933 61.1863 43.1679 62.0519Z" fill="#2F423F"/>
</g>
<defs>
<clipPath id="clip0">
<rect width="104" height="96" fill="white" transform="translate(0 67.0829) rotate(-40.1677)"/>
</clipPath>
</defs>
</svg>
