<svg width="36" height="27" viewBox="0 0 36 27" fill="none" xmlns="http://www.w3.org/2000/svg">
<path d="M26.433 0C23.5635 0 22.596 2.073 17.9985 2.073C13.485 2.073 12.3795 0 9.564 0C1.7505 0 0 15.5625 0 21.522C0 24.7395 1.2255 27 3.7035 27C8.8905 27 8.0925 19.5 14.076 19.5H21.921C27.9045 19.5 27.1065 27 32.2935 27C34.7715 27 36 24.741 36 21.5235C36 15.564 34.2465 0 26.433 0ZM10.5 15C8.0145 15 6 12.9855 6 10.5C6 8.0145 8.0145 6 10.5 6C12.9855 6 15 8.0145 15 10.5C15 12.9855 12.9855 15 10.5 15ZM25.5 6C26.328 6 27 6.6705 27 7.5C27 8.3295 26.328 9 25.5 9C24.672 9 24 8.3295 24 7.5C24 6.6705 24.672 6 25.5 6ZM22.5 12C21.672 12 21 11.3295 21 10.5C21 9.6705 21.672 9 22.5 9C23.328 9 24 9.6705 24 10.5C24 11.3295 23.328 12 22.5 12ZM25.5 15C24.672 15 24 14.3295 24 13.5C24 12.6705 24.672 12 25.5 12C26.328 12 27 12.6705 27 13.5C27 14.3295 26.328 15 25.5 15ZM28.5 12C27.672 12 27 11.3295 27 10.5C27 9.6705 27.672 9 28.5 9C29.328 9 30 9.6705 30 10.5C30 11.3295 29.328 12 28.5 12ZM13.125 10.5C13.125 11.9475 11.9475 13.125 10.5 13.125C9.0525 13.125 7.875 11.9475 7.875 10.5C7.875 9.0525 9.0525 7.875 10.5 7.875C11.9475 7.875 13.125 9.0525 13.125 10.5Z" fill="url(#paint0_linear)"/>
<defs>
<linearGradient id="paint0_linear" x1="36" y1="-6.58681e-07" x2="11.9815" y2="35.3209" gradientUnits="userSpaceOnUse">
<stop stop-color="#B7B2EA"/>
<stop offset="1" stop-color="#B06FA1"/>
</linearGradient>
</defs>
</svg>
