<svg width="36" height="36" viewBox="0 0 36 36" fill="none" xmlns="http://www.w3.org/2000/svg">
<path d="M35.862 18C35.862 27.9405 27.8025 36 17.862 36C9.189 36 1.95 29.8635 0.246 21.6945L7.392 24.699C7.8195 26.8605 9.732 28.5195 12.0645 28.5C14.649 28.4745 16.722 26.379 16.7385 23.8065L16.749 23.802L22.152 19.776C25.608 19.812 28.362 17.0265 28.362 13.6395C28.362 10.2495 25.611 7.5 22.2225 7.5C18.8715 7.5 16.1505 10.1865 16.0875 13.5225L12.1275 19.062C11.1255 19.041 10.224 19.3155 9.441 19.827L0 15.858C1.062 6.9285 8.6475 0 17.862 0C27.8025 0 35.862 8.0595 35.862 18ZM10.9965 26.2155L8.6805 25.242C9.2505 26.529 10.5345 27.4335 12.054 27.4275C14.073 27.4095 15.687 25.7625 15.669 23.745C15.651 21.7515 14.013 20.13 12.021 20.13C11.5905 20.1315 11.166 20.205 10.731 20.37L13.044 21.342C14.391 21.909 15.0225 23.4585 14.4555 24.804C13.8915 26.148 12.342 26.781 10.9965 26.2155V26.2155ZM22.2225 17.8125C19.923 17.8125 18.051 15.939 18.051 13.6395C18.051 11.3385 19.923 9.4665 22.2225 9.4665C24.5235 9.4665 26.394 11.3385 26.394 13.6395C26.394 15.939 24.5235 17.8125 22.2225 17.8125ZM22.2225 16.7895C23.961 16.7895 25.3725 15.3765 25.3725 13.638C25.3725 11.901 23.9625 10.485 22.2225 10.485C20.4825 10.485 19.0695 11.8995 19.0695 13.638C19.071 15.3765 20.484 16.7895 22.2225 16.7895V16.7895Z" fill="url(#paint0_linear)"/>
<defs>
<linearGradient id="paint0_linear" x1="35.862" y1="-8.78242e-07" x2="1.57815" y2="37.6676" gradientUnits="userSpaceOnUse">
<stop stop-color="#B7B2EA"/>
<stop offset="1" stop-color="#B06FA1"/>
</linearGradient>
</defs>
</svg>
